<svg width="16" height="16" viewBox="0 0 16 16" fill="none" xmlns="http://www.w3.org/2000/svg">
    <path d="M13.2734 10.34H10.2534C10.0766 10.34 9.90699 10.4102 9.78197 10.5353C9.65695 10.6603 9.58671 10.8299 9.58671 11.0067C9.58671 11.1835 9.65695 11.3531 9.78197 11.4781C9.90699 11.6031 10.0766 11.6733 10.2534 11.6733H11.8534C11.118 12.4418 10.1696 12.9729 9.13015 13.1983C8.09066 13.4237 7.00751 13.3331 6.01989 12.9382C5.03227 12.5433 4.18529 11.8621 3.58777 10.9821C2.99025 10.1022 2.66949 9.06365 2.66671 8.00001C2.66671 7.8232 2.59647 7.65363 2.47145 7.52861C2.34642 7.40358 2.17685 7.33334 2.00004 7.33334C1.82323 7.33334 1.65366 7.40358 1.52864 7.52861C1.40361 7.65363 1.33337 7.8232 1.33337 8.00001C1.3369 9.30188 1.72152 10.5742 2.43978 11.66C3.15803 12.7458 4.17848 13.5976 5.3752 14.1102C6.57192 14.6227 7.89253 14.7737 9.17405 14.5444C10.4556 14.3152 11.6419 13.7157 12.5867 12.82V14C12.5867 14.1768 12.6569 14.3464 12.782 14.4714C12.907 14.5964 13.0766 14.6667 13.2534 14.6667C13.4302 14.6667 13.5998 14.5964 13.7248 14.4714C13.8498 14.3464 13.92 14.1768 13.92 14V11C13.9184 10.8278 13.8501 10.6628 13.7296 10.5398C13.609 10.4168 13.4455 10.3452 13.2734 10.34ZM8.00004 1.33334C6.29096 1.33822 4.64903 1.99929 3.41337 3.18001V2.00001C3.41337 1.8232 3.34314 1.65363 3.21811 1.52861C3.09309 1.40358 2.92352 1.33334 2.74671 1.33334C2.5699 1.33334 2.40033 1.40358 2.2753 1.52861C2.15028 1.65363 2.08004 1.8232 2.08004 2.00001V5.00001C2.08004 5.17682 2.15028 5.34639 2.2753 5.47141C2.40033 5.59644 2.5699 5.66668 2.74671 5.66668H5.74671C5.92352 5.66668 6.09309 5.59644 6.21811 5.47141C6.34314 5.34639 6.41337 5.17682 6.41337 5.00001C6.41337 4.8232 6.34314 4.65363 6.21811 4.52861C6.09309 4.40358 5.92352 4.33334 5.74671 4.33334H4.14671C4.88168 3.56526 5.82943 3.03434 6.86831 2.80875C7.90718 2.58315 8.98977 2.67317 9.97711 3.06725C10.9645 3.46133 11.8115 4.14148 12.4095 5.02041C13.0076 5.89934 13.3293 6.93693 13.3334 8.00001C13.3334 8.17682 13.4036 8.34639 13.5286 8.47141C13.6537 8.59644 13.8232 8.66668 14 8.66668C14.1769 8.66668 14.3464 8.59644 14.4714 8.47141C14.5965 8.34639 14.6667 8.17682 14.6667 8.00001C14.6667 7.12453 14.4943 6.25762 14.1592 5.44879C13.8242 4.63995 13.3331 3.90502 12.7141 3.28596C12.095 2.66691 11.3601 2.17584 10.5513 1.84081C9.74243 1.50578 8.87552 1.33334 8.00004 1.33334Z" fill="#F9A500"/>
</svg>
