<svg width="24" height="24" viewBox="0 0 24 24" fill="none" xmlns="http://www.w3.org/2000/svg">
    <path fill-rule="evenodd" clip-rule="evenodd" d="M7 2H17C18.3261 2 19.5979 2.52678 20.5355 3.46447C21.4732 4.40215 22 5.67392 22 7V17C22 18.3261 21.4732 19.5979 20.5355 20.5355C19.5979 21.4732 18.3261 22 17 22H7C5.67392 22 4.40215 21.4732 3.46447 20.5355C2.52678 19.5979 2 18.3261 2 17V7C2 5.67392 2.52678 4.40215 3.46447 3.46447C4.40215 2.52678 5.67392 2 7 2ZM17.2054 7.92156C17.3047 7.96295 17.3949 8.02359 17.4707 8.09999C17.5534 8.17633 17.6195 8.26897 17.6646 8.37209C17.7098 8.47521 17.7331 8.58656 17.7331 8.69914C17.7331 8.81171 17.7098 8.92307 17.6646 9.02619C17.6195 9.1293 17.5534 9.22195 17.4707 9.29828L10.819 15.95C10.7432 16.0264 10.653 16.087 10.5537 16.1284C10.4544 16.1698 10.3478 16.1911 10.2402 16.1911C10.1326 16.1911 10.026 16.1698 9.92671 16.1284C9.82737 16.087 9.73721 16.0264 9.66143 15.95L6.53121 12.8198C6.45253 12.7438 6.38959 12.653 6.34599 12.5527C6.30238 12.4524 6.27896 12.3444 6.27707 12.235C6.27518 12.1257 6.29485 12.017 6.33496 11.9152C6.37507 11.8134 6.43483 11.7206 6.51083 11.6419C6.58684 11.5632 6.6776 11.5002 6.77793 11.4566C6.87825 11.413 6.98619 11.3896 7.09557 11.3877C7.20495 11.3858 7.31363 11.4055 7.4154 11.4456C7.51718 11.4857 7.61006 11.5455 7.68874 11.6215L10.2402 14.1811L16.3131 8.09999C16.3889 8.02359 16.4791 7.96295 16.5784 7.92156C16.6778 7.88018 16.7843 7.85887 16.8919 7.85887C16.9995 7.85887 17.1061 7.88018 17.2054 7.92156Z" fill="#005FF9"/>
</svg>
